# xmcd
#
# Track frame offsets:
#	150
#	26166
#	45678
#	76534
#	97014
#	117670
#	141174
#	155742
#	173870
#	190430
#
# Disc length: 2815 seconds
#
# Revision: 1
# Processed by: cddbd v1.5.2PL0 Copyright (c) Steve Scherf et al.
# Submitted via: EZCDAudioConverter 8.1.0.1
#
DISCID=890afd0a
DTITLE=Gurf Morlix - Eatin' At Me
DYEAR=2015
DGENRE=Country
TTITLE0=Dirty Old Buffalo
TTITLE1=Grab The Wheel
TTITLE2=Elephant's Graveyard
TTITLE3=Orphan Tears
TTITLE4=The Dog I Am
TTITLE5=50 Years
TTITLE6=Dinah
TTITLE7=Last Call
TTITLE8=Born In Lackawanna
TTITLE9=Blue Smoke
EXTD=
EXTT0=
EXTT1=
EXTT2=
EXTT3=
EXTT4=
EXTT5=
EXTT6=
EXTT7=
EXTT8=
EXTT9=
PLAYORDER=
